<svg width="675" height="466" viewBox="0 0 675 466" fill="none" xmlns="http://www.w3.org/2000/svg">
<path d="M604.982 279.479L443.659 185.755" stroke="#4E4E4E" stroke-miterlimit="10"/>
<path d="M604.432 94.8086L604.983 279.85C604.983 280.03 604.887 280.197 604.73 280.286L444.478 371.777" stroke="#A1A1A1" stroke-miterlimit="10" stroke-linecap="round"/>
<path d="M443.786 1.57764L444.336 186.619C444.337 186.799 444.24 186.966 444.084 187.055L283.832 278.546" stroke="#4E4E4E" stroke-miterlimit="10" stroke-linecap="round"/>
<path d="M283.08 93.4589L443.335 1.14442C443.49 1.05508 443.681 1.05546 443.835 1.14541L604.069 94.2889C604.402 94.4821 604.401 94.9625 604.068 95.1544L444.311 187.182" stroke="#A1A1A1" stroke-miterlimit="10" stroke-linecap="round"/>
<path d="M149.351 354.212L148.8 169.998C148.8 169.818 148.896 169.652 149.053 169.563L278.663 95.7329" stroke="#A1A1A1" stroke-miterlimit="10" stroke-linecap="round" stroke-dasharray="5 10"/>
<path d="M234.214 306.571L280.395 280" stroke="#A1A1A1" stroke-miterlimit="10" stroke-linecap="round" stroke-dasharray="5 10"/>
<path d="M310.412 447.516L439.719 374.155" stroke="#A1A1A1" stroke-miterlimit="10" stroke-linecap="round" stroke-dasharray="5 10"/>
<path d="M148.779 169.671L309.506 262.55C309.66 262.639 309.755 262.803 309.756 262.981L310.409 446.646C310.41 447.032 309.993 447.274 309.659 447.081L149.356 354.516" stroke="#A1A1A1" stroke-miterlimit="10" stroke-linecap="round" stroke-dasharray="5 10"/>
<path d="M443.554 110.03L443.83 221.671L346.724 277.721" stroke="#A1A1A1" stroke-width="2" stroke-miterlimit="10" stroke-linejoin="round"/>
<path d="M541.028 277.997L443.83 221.579L443.555 110.03" stroke="#A1A1A1" stroke-width="2" stroke-miterlimit="10" stroke-linejoin="round"/>
<path d="M540.662 166.448L443.556 222.498L443.831 334.139L541.029 277.997L540.662 166.448Z" stroke="#E5E5E5" stroke-width="2" stroke-miterlimit="10" stroke-linejoin="round"/>
<path d="M540.661 166.448L443.555 110.03L346.449 166.08L443.555 222.498L540.661 166.448Z" stroke="#E5E5E5" stroke-width="2" stroke-miterlimit="10" stroke-linejoin="round"/>
<path d="M443.554 222.498L346.448 166.08L346.724 277.629L443.83 334.139L443.554 222.498Z" stroke="#E5E5E5" stroke-width="2" stroke-miterlimit="10" stroke-linejoin="round"/>
<path d="M659.101 65.2023V57.4843H665.561C666.263 57.4843 666.921 57.5296 667.533 57.6203C668.167 57.6883 668.723 57.8583 669.199 58.1303C669.675 58.4023 670.049 58.7876 670.321 59.2863C670.593 59.7849 670.729 60.4649 670.729 61.3263C670.729 62.6183 670.321 63.5929 669.505 64.2503C668.711 64.8849 667.397 65.2023 665.561 65.2023H659.101ZM655.871 54.7643V79.0403H667.601C668.802 79.0403 669.856 78.8476 670.763 78.4623C671.692 78.0543 672.463 77.5329 673.075 76.8983C673.709 76.2409 674.185 75.4929 674.503 74.6543C674.82 73.8156 674.979 72.9543 674.979 72.0703C674.979 70.5743 674.582 69.3049 673.789 68.2623C672.995 67.2196 671.851 66.5396 670.355 66.2223V66.1543C671.511 65.7009 672.395 65.0096 673.007 64.0803C673.641 63.1283 673.959 62.0063 673.959 60.7143C673.959 59.4903 673.675 58.4589 673.109 57.6203C672.565 56.7816 671.896 56.1243 671.103 55.6483C670.74 55.4216 670.298 55.2516 669.777 55.1383C669.278 55.0249 668.734 54.9456 668.145 54.9003C667.555 54.8323 666.955 54.7983 666.343 54.7983C665.753 54.7756 665.198 54.7643 664.677 54.7643H655.871ZM659.101 76.3203V67.9223H666.479C667.159 67.9223 667.816 67.9903 668.451 68.1263C669.085 68.2396 669.641 68.4549 670.117 68.7723C670.615 69.0669 671.012 69.4749 671.307 69.9963C671.601 70.5176 671.749 71.1749 671.749 71.9683C671.749 73.3283 671.341 74.3936 670.525 75.1643C669.731 75.9349 668.621 76.3203 667.193 76.3203H659.101Z" fill="#A1A1A1"/>
<path d="M0.188133 426.732V451.008H3.41813V439.89H14.5701V437.17H3.41813V429.452H16.1341V426.732H0.188133Z" fill="#E5E5E5"/>
<path d="M230.097 309.747C230.575 309.469 230.737 308.857 230.46 308.38C230.183 307.902 229.571 307.74 229.093 308.017L230.097 309.747ZM41.5959 417.222C41.4543 417.756 41.7722 418.303 42.3061 418.445L51.0051 420.753C51.5389 420.894 52.0864 420.577 52.2281 420.043C52.3697 419.509 52.0518 418.961 51.518 418.82L43.7855 416.768L45.8371 409.036C45.9787 408.502 45.6608 407.954 45.127 407.813C44.5932 407.671 44.0456 407.989 43.904 408.523L41.5959 417.222ZM229.093 308.017L42.0604 416.613L43.0646 418.343L230.097 309.747L229.093 308.017Z" fill="#E5E5E5"/>
<path d="M639.452 74.3602L607.125 92.8447" stroke="#A1A1A1" stroke-miterlimit="10" stroke-linecap="round"/>
<path d="M444.112 187.416C444.111 187.238 444.017 187.074 443.863 186.985L283.633 93.7526C283.3 93.5584 282.881 93.7998 282.882 94.186L283.338 278.36C283.339 278.538 283.434 278.702 283.587 278.791L443.908 371.932C444.242 372.126 444.661 371.884 444.66 371.498L444.112 187.416Z" stroke="#A1A1A1" stroke-miterlimit="10"/>
</svg>
