<svg width="671" height="438" viewBox="0 0 671 438" fill="none" xmlns="http://www.w3.org/2000/svg">
<path d="M313.526 209.176C313.681 209.087 313.778 208.922 313.778 208.742V97.3571C313.778 96.9732 313.363 96.7325 313.029 96.923L215.552 152.62C215.396 152.709 215.3 152.875 215.3 153.054V264.439C215.3 264.823 215.715 265.064 216.048 264.873L313.526 209.176Z" stroke="#A1A1A1" stroke-miterlimit="10"/>
<path d="M301.94 202.103C302.095 202.014 302.191 201.849 302.191 201.67V49.1311C302.191 48.7463 301.774 48.5057 301.441 48.6979L169.206 124.968C169.051 125.057 168.956 125.222 168.956 125.401V277.94C168.956 278.324 169.373 278.565 169.706 278.373L301.94 202.103Z" stroke="#A1A1A1" stroke-miterlimit="10"/>
<path d="M291.32 195.994C291.476 195.904 291.572 195.739 291.572 195.56V1.86302C291.572 1.47879 291.156 1.23815 290.823 1.42926L121.901 98.2807C121.745 98.3698 121.649 98.5353 121.649 98.7144V292.411C121.649 292.796 122.065 293.036 122.398 292.845L291.32 195.994Z" stroke="#A1A1A1" stroke-miterlimit="10"/>
<path d="M68.539 68.7555C68.3956 68.2222 68.7116 67.6735 69.2449 67.5301L77.936 65.1923C78.4693 65.0488 79.018 65.3649 79.1614 65.8982C79.3049 66.4315 78.9888 66.9802 78.4555 67.1236L70.7301 69.2016L72.8082 76.927C72.9516 77.4604 72.6356 78.009 72.1022 78.1525C71.5689 78.2959 71.0203 77.9799 70.8768 77.4466L68.539 68.7555ZM334.448 222.273L69.0055 69.3622L70.0038 67.6292L335.446 220.54L334.448 222.273Z" fill="#A1A1A1"/>
<path d="M601.356 375.255C601.498 375.789 601.18 376.337 600.646 376.478L591.947 378.787C591.413 378.928 590.866 378.611 590.724 378.077C590.583 377.543 590.9 376.995 591.434 376.854L599.167 374.802L597.115 367.069C596.973 366.536 597.291 365.988 597.825 365.846C598.358 365.705 598.906 366.023 599.048 366.556L601.356 375.255ZM334.445 222.271C333.967 221.994 333.805 221.382 334.082 220.904C334.36 220.427 334.971 220.264 335.449 220.542L334.445 222.271ZM599.888 376.377L334.445 222.271L335.449 220.542L600.892 374.647L599.888 376.377Z" fill="#E5E5E5"/>
<path d="M30.3083 41.2405V65.5165H46.3902V62.7965H33.5383V41.2405H30.3083Z" fill="#A1A1A1"/>
<path d="M625.76 382.9V407.176H628.99V396.806H636.878C637.672 396.806 638.306 396.931 638.782 397.18C639.258 397.407 639.644 397.724 639.938 398.132C640.233 398.518 640.448 398.982 640.584 399.526C640.72 400.048 640.834 400.603 640.924 401.192C641.038 401.782 641.106 402.382 641.128 402.994C641.151 403.606 641.174 404.184 641.196 404.728C641.219 405.25 641.264 405.726 641.332 406.156C641.423 406.587 641.582 406.927 641.808 407.176H645.412C645.072 406.768 644.812 406.304 644.63 405.782C644.472 405.238 644.347 404.672 644.256 404.082C644.166 403.493 644.109 402.892 644.086 402.28C644.064 401.668 644.03 401.068 643.984 400.478C643.916 399.889 643.814 399.322 643.678 398.778C643.565 398.234 643.372 397.747 643.1 397.316C642.851 396.863 642.5 396.478 642.046 396.16C641.616 395.843 641.049 395.616 640.346 395.48V395.412C641.82 395.004 642.885 394.245 643.542 393.134C644.222 392.024 644.562 390.732 644.562 389.258C644.562 387.286 643.905 385.734 642.59 384.6C641.298 383.467 639.496 382.9 637.184 382.9H625.76ZM635.722 394.086H628.99V385.62H637.014C638.533 385.62 639.632 386.006 640.312 386.776C640.992 387.547 641.332 388.544 641.332 389.768C641.332 390.652 641.174 391.378 640.856 391.944C640.562 392.488 640.154 392.93 639.632 393.27C639.134 393.588 638.544 393.803 637.864 393.916C637.184 394.03 636.47 394.086 635.722 394.086Z" fill="#E5E5E5"/>
<path d="M538.48 339.719C538.635 339.63 538.731 339.465 538.731 339.285V145.589C538.731 145.204 538.316 144.964 537.982 145.155L369.06 242.006C368.904 242.095 368.809 242.261 368.809 242.44V436.137C368.809 436.521 369.224 436.762 369.557 436.571L538.48 339.719Z" stroke="#E5E5E5" stroke-width="2" stroke-miterlimit="10"/>
<path d="M491.171 311.746C491.327 311.657 491.423 311.491 491.423 311.312V160.057C491.423 159.673 491.008 159.432 490.675 159.623L358.44 235.254C358.285 235.343 358.188 235.509 358.188 235.688V386.943C358.188 387.327 358.603 387.568 358.937 387.377L491.171 311.746Z" stroke="#E5E5E5" stroke-width="2" stroke-miterlimit="10"/>
<path d="M444.828 285.38C444.984 285.291 445.08 285.125 445.08 284.946V173.561C445.08 173.177 444.666 172.936 444.332 173.127L346.854 228.824C346.699 228.913 346.603 229.078 346.603 229.258V340.643C346.603 341.027 347.017 341.268 347.351 341.077L444.828 285.38Z" stroke="#E5E5E5" stroke-width="2" stroke-miterlimit="10"/>
<path d="M538.596 351.96C532.824 349.921 529.8 343.594 531.84 337.83C533.88 332.065 540.212 329.042 545.984 331.081C551.756 333.119 554.78 339.446 552.74 345.211C550.701 350.976 544.369 353.999 538.596 351.96Z" fill="#282828" stroke="#F3C635" stroke-width="3"/>
<path opacity="0.2" d="M533.669 365.884C520.201 361.127 513.143 346.363 517.904 332.908C522.664 319.452 537.441 312.4 550.91 317.157C564.378 321.914 571.436 336.678 566.675 350.133C561.914 363.588 547.137 370.641 533.669 365.884Z" stroke="#F3C635"/>
<path d="M542.2 362.9V346.9L553.8 358.5H547L546.6 358.6L542.2 362.9Z" fill="white"/>
<path d="M551.3 363.6L547.7 365.1L543 354L546.7 352.5L551.3 363.6Z" fill="white"/>
<path d="M546.874 355.519L545.03 356.293L548.127 363.67L549.971 362.895L546.874 355.519Z" fill="black"/>
<path d="M543.2 349.3V360.5L546.2 357.6L546.6 357.5H551.4L543.2 349.3Z" fill="black"/>
</svg>
