<svg width="545" height="494" viewBox="0 0 545 494" fill="none" xmlns="http://www.w3.org/2000/svg">
<path d="M110.004 242.132L110.872 241.636L111.864 243.372L110.996 243.868L110.004 242.132ZM1.4963 306.467C1.01684 306.741 0.405952 306.574 0.131851 306.095C-0.14225 305.615 0.024231 305.005 0.5037 304.73L1.4963 306.467ZM0.5037 304.73L110.004 242.132L110.996 243.868L1.4963 306.467L0.5037 304.73Z" fill="#A1A1A1"/>
<path d="M522.004 9.13185L522.872 8.63555L523.864 10.3718L522.996 10.8682L522.004 9.13185ZM413.496 73.4668C413.017 73.7409 412.406 73.5744 412.132 73.0949C411.858 72.6155 412.024 72.0046 412.504 71.7305L413.496 73.4668ZM412.504 71.7305L522.004 9.13185L522.996 10.8682L413.496 73.4668L412.504 71.7305Z" fill="#A1A1A1"/>
<circle cx="116.5" cy="239.5" r="5.5" stroke="#E5E5E5" stroke-width="2"/>
<circle cx="528.5" cy="6.5" r="5.5" stroke="#E5E5E5" stroke-width="2"/>
<path d="M358.607 409.5L288.528 369L217.989 409.5" stroke="#4E4E4E" stroke-width="2" stroke-miterlimit="10" stroke-linejoin="round"/>
<path d="M396.055 431.141L358.607 409.5M181.001 430.737L217.989 409.5" stroke="#4E4E4E" stroke-width="2" stroke-miterlimit="10" stroke-linejoin="round"/>
<path d="M396.055 431.141L288.528 492.878L181.001 430.736" stroke="#E5E5E5" stroke-width="2" stroke-miterlimit="10" stroke-linejoin="round"/>
<path d="M396.1 388.3L396.1 431" stroke="#E5E5E5" stroke-width="2" stroke-miterlimit="10" stroke-linecap="round" stroke-linejoin="round"/>
<path d="M288.83 450.3L288.83 492" stroke="#E5E5E5" stroke-width="2" stroke-miterlimit="10" stroke-linecap="round" stroke-linejoin="round"/>
<path d="M288.83 326.3L288.83 369" stroke="#4E4E4E" stroke-width="2" stroke-miterlimit="10" stroke-linecap="round" stroke-linejoin="round"/>
<path d="M289.707 278.293C289.317 277.902 288.683 277.902 288.293 278.293L281.929 284.657C281.538 285.047 281.538 285.681 281.929 286.071C282.319 286.462 282.953 286.462 283.343 286.071L289 280.414L294.657 286.071C295.047 286.462 295.681 286.462 296.071 286.071C296.462 285.681 296.462 285.047 296.071 284.657L289.707 278.293ZM288 387C288 387.552 288.448 388 289 388C289.552 388 290 387.552 290 387L288 387ZM288 279L288 387L290 387L290 279L288 279Z" fill="#E5E5E5"/>
<path d="M181 388L181 430.7" stroke="#E5E5E5" stroke-width="2" stroke-miterlimit="10" stroke-linecap="round" stroke-linejoin="round"/>
<path d="M288.527 18L288.832 140.967L181.305 202.704" stroke="#4E4E4E" stroke-width="2" stroke-miterlimit="10" stroke-linejoin="round"/>
<path d="M396.462 203.007L288.833 140.866L288.528 18" stroke="#4E4E4E" stroke-width="2" stroke-miterlimit="10" stroke-linejoin="round"/>
<path d="M374.498 375.685L288.526 326L202.998 375.106" stroke="#E5E5E5" stroke-width="2" stroke-miterlimit="10" stroke-linejoin="round"/>
<path d="M374.498 375.685L396.053 388.142L288.526 449.878L180.999 387.737L202.998 375.106" stroke="#E5E5E5" stroke-width="2" stroke-miterlimit="10" stroke-linejoin="round"/>
<path d="M374.6 325.72V340H376.4V328.12H376.44L380.9 340H382.52L386.98 328.12H387.02V340H388.82V325.72H386.22L381.7 337.72L377.2 325.72H374.6ZM401.862 339.96C401.569 340.133 401.162 340.22 400.642 340.22C400.202 340.22 399.849 340.1 399.582 339.86C399.329 339.607 399.202 339.2 399.202 338.64C398.735 339.2 398.189 339.607 397.562 339.86C396.949 340.1 396.282 340.22 395.562 340.22C395.095 340.22 394.649 340.167 394.222 340.06C393.809 339.953 393.449 339.787 393.142 339.56C392.835 339.333 392.589 339.04 392.402 338.68C392.229 338.307 392.142 337.86 392.142 337.34C392.142 336.753 392.242 336.273 392.442 335.9C392.642 335.527 392.902 335.227 393.222 335C393.555 334.76 393.929 334.58 394.342 334.46C394.769 334.34 395.202 334.24 395.642 334.16C396.109 334.067 396.549 334 396.962 333.96C397.389 333.907 397.762 333.84 398.082 333.76C398.402 333.667 398.655 333.54 398.842 333.38C399.029 333.207 399.122 332.96 399.122 332.64C399.122 332.267 399.049 331.967 398.902 331.74C398.769 331.513 398.589 331.34 398.362 331.22C398.149 331.1 397.902 331.02 397.622 330.98C397.355 330.94 397.089 330.92 396.822 330.92C396.102 330.92 395.502 331.06 395.022 331.34C394.542 331.607 394.282 332.12 394.242 332.88H392.542C392.569 332.24 392.702 331.7 392.942 331.26C393.182 330.82 393.502 330.467 393.902 330.2C394.302 329.92 394.755 329.72 395.262 329.6C395.782 329.48 396.335 329.42 396.922 329.42C397.389 329.42 397.849 329.453 398.302 329.52C398.769 329.587 399.189 329.727 399.562 329.94C399.935 330.14 400.235 330.427 400.462 330.8C400.689 331.173 400.802 331.66 400.802 332.26V337.58C400.802 337.98 400.822 338.273 400.862 338.46C400.915 338.647 401.075 338.74 401.342 338.74C401.489 338.74 401.662 338.707 401.862 338.64V339.96ZM399.102 334.66C398.889 334.82 398.609 334.94 398.262 335.02C397.915 335.087 397.549 335.147 397.162 335.2C396.789 335.24 396.409 335.293 396.022 335.36C395.635 335.413 395.289 335.507 394.982 335.64C394.675 335.773 394.422 335.967 394.222 336.22C394.035 336.46 393.942 336.793 393.942 337.22C393.942 337.5 393.995 337.74 394.102 337.94C394.222 338.127 394.369 338.28 394.542 338.4C394.729 338.52 394.942 338.607 395.182 338.66C395.422 338.713 395.675 338.74 395.942 338.74C396.502 338.74 396.982 338.667 397.382 338.52C397.782 338.36 398.109 338.167 398.362 337.94C398.615 337.7 398.802 337.447 398.922 337.18C399.042 336.9 399.102 336.64 399.102 336.4V334.66ZM411.464 332.98H413.224C413.157 332.367 412.997 331.84 412.744 331.4C412.491 330.947 412.164 330.573 411.764 330.28C411.377 329.987 410.924 329.773 410.404 329.64C409.897 329.493 409.351 329.42 408.764 329.42C407.951 329.42 407.237 329.567 406.624 329.86C406.011 330.14 405.497 330.533 405.084 331.04C404.684 331.533 404.384 332.12 404.184 332.8C403.984 333.467 403.884 334.187 403.884 334.96C403.884 335.733 403.984 336.447 404.184 337.1C404.397 337.74 404.704 338.293 405.104 338.76C405.517 339.227 406.024 339.587 406.624 339.84C407.237 340.093 407.937 340.22 408.724 340.22C410.044 340.22 411.084 339.873 411.844 339.18C412.617 338.487 413.097 337.5 413.284 336.22H411.544C411.437 337.02 411.144 337.64 410.664 338.08C410.197 338.52 409.544 338.74 408.704 338.74C408.171 338.74 407.711 338.633 407.324 338.42C406.937 338.207 406.624 337.927 406.384 337.58C406.144 337.22 405.964 336.813 405.844 336.36C405.737 335.907 405.684 335.44 405.684 334.96C405.684 334.44 405.737 333.94 405.844 333.46C405.951 332.967 406.124 332.533 406.364 332.16C406.617 331.787 406.951 331.487 407.364 331.26C407.777 331.033 408.291 330.92 408.904 330.92C409.624 330.92 410.197 331.1 410.624 331.46C411.051 331.82 411.331 332.327 411.464 332.98ZM416.186 325.72V340H417.886V334.16C417.886 333.693 417.946 333.267 418.066 332.88C418.2 332.48 418.393 332.133 418.646 331.84C418.9 331.547 419.213 331.32 419.586 331.16C419.973 331 420.426 330.92 420.946 330.92C421.6 330.92 422.113 331.107 422.486 331.48C422.86 331.853 423.046 332.36 423.046 333V340H424.746V333.2C424.746 332.64 424.686 332.133 424.566 331.68C424.46 331.213 424.266 330.813 423.986 330.48C423.706 330.147 423.34 329.887 422.886 329.7C422.433 329.513 421.866 329.42 421.186 329.42C420.88 329.42 420.56 329.453 420.226 329.52C419.906 329.587 419.593 329.693 419.286 329.84C418.993 329.973 418.726 330.153 418.486 330.38C418.246 330.593 418.06 330.86 417.926 331.18H417.886V325.72H416.186ZM434.14 340V325.82H432.84C432.746 326.353 432.573 326.793 432.32 327.14C432.066 327.487 431.753 327.76 431.38 327.96C431.02 328.16 430.613 328.3 430.16 328.38C429.706 328.447 429.24 328.48 428.76 328.48V329.84H432.44V340H434.14ZM442.593 338.4V327.32H445.793C446.673 327.32 447.413 327.447 448.013 327.7C448.613 327.94 449.099 328.3 449.473 328.78C449.859 329.247 450.133 329.82 450.293 330.5C450.466 331.167 450.553 331.927 450.553 332.78C450.553 333.66 450.459 334.413 450.273 335.04C450.099 335.653 449.873 336.167 449.593 336.58C449.313 336.993 448.993 337.32 448.633 337.56C448.286 337.8 447.933 337.987 447.573 338.12C447.213 338.24 446.873 338.32 446.553 338.36C446.233 338.387 445.966 338.4 445.753 338.4H442.593ZM440.693 325.72V340H445.593C446.779 340 447.806 339.833 448.673 339.5C449.539 339.167 450.253 338.687 450.813 338.06C451.373 337.42 451.786 336.64 452.053 335.72C452.319 334.787 452.453 333.72 452.453 332.52C452.453 330.227 451.859 328.52 450.673 327.4C449.486 326.28 447.793 325.72 445.593 325.72H440.693ZM462.675 333.84H456.735C456.762 333.44 456.848 333.067 456.995 332.72C457.142 332.36 457.342 332.047 457.595 331.78C457.848 331.513 458.148 331.307 458.495 331.16C458.855 331 459.255 330.92 459.695 330.92C460.122 330.92 460.508 331 460.855 331.16C461.215 331.307 461.522 331.513 461.775 331.78C462.042 332.033 462.248 332.34 462.395 332.7C462.555 333.06 462.648 333.44 462.675 333.84ZM464.315 336.72H462.635C462.488 337.4 462.182 337.907 461.715 338.24C461.262 338.573 460.675 338.74 459.955 338.74C459.395 338.74 458.908 338.647 458.495 338.46C458.082 338.273 457.742 338.027 457.475 337.72C457.208 337.4 457.015 337.04 456.895 336.64C456.775 336.227 456.722 335.793 456.735 335.34H464.475C464.502 334.713 464.442 334.053 464.295 333.36C464.162 332.667 463.908 332.027 463.535 331.44C463.175 330.853 462.688 330.373 462.075 330C461.475 329.613 460.715 329.42 459.795 329.42C459.088 329.42 458.435 329.553 457.835 329.82C457.248 330.087 456.735 330.46 456.295 330.94C455.868 331.42 455.535 331.987 455.295 332.64C455.055 333.293 454.935 334.013 454.935 334.8C454.962 335.587 455.075 336.313 455.275 336.98C455.488 337.647 455.802 338.22 456.215 338.7C456.628 339.18 457.135 339.553 457.735 339.82C458.348 340.087 459.068 340.22 459.895 340.22C461.068 340.22 462.042 339.927 462.815 339.34C463.588 338.753 464.088 337.88 464.315 336.72ZM474.257 332.98H476.017C475.95 332.367 475.79 331.84 475.537 331.4C475.284 330.947 474.957 330.573 474.557 330.28C474.17 329.987 473.717 329.773 473.197 329.64C472.69 329.493 472.144 329.42 471.557 329.42C470.744 329.42 470.03 329.567 469.417 329.86C468.804 330.14 468.29 330.533 467.877 331.04C467.477 331.533 467.177 332.12 466.977 332.8C466.777 333.467 466.677 334.187 466.677 334.96C466.677 335.733 466.777 336.447 466.977 337.1C467.19 337.74 467.497 338.293 467.897 338.76C468.31 339.227 468.817 339.587 469.417 339.84C470.03 340.093 470.73 340.22 471.517 340.22C472.837 340.22 473.877 339.873 474.637 339.18C475.41 338.487 475.89 337.5 476.077 336.22H474.337C474.23 337.02 473.937 337.64 473.457 338.08C472.99 338.52 472.337 338.74 471.497 338.74C470.964 338.74 470.504 338.633 470.117 338.42C469.73 338.207 469.417 337.927 469.177 337.58C468.937 337.22 468.757 336.813 468.637 336.36C468.53 335.907 468.477 335.44 468.477 334.96C468.477 334.44 468.53 333.94 468.637 333.46C468.744 332.967 468.917 332.533 469.157 332.16C469.41 331.787 469.744 331.487 470.157 331.26C470.57 331.033 471.084 330.92 471.697 330.92C472.417 330.92 472.99 331.1 473.417 331.46C473.844 331.82 474.124 332.327 474.257 332.98ZM480.219 334.84C480.219 334.213 480.299 333.66 480.459 333.18C480.633 332.687 480.866 332.273 481.159 331.94C481.453 331.607 481.793 331.353 482.179 331.18C482.579 331.007 482.999 330.92 483.439 330.92C483.879 330.92 484.293 331.007 484.679 331.18C485.079 331.353 485.426 331.607 485.719 331.94C486.013 332.273 486.239 332.687 486.399 333.18C486.573 333.66 486.659 334.213 486.659 334.84C486.659 335.467 486.573 336.027 486.399 336.52C486.239 337 486.013 337.407 485.719 337.74C485.426 338.06 485.079 338.307 484.679 338.48C484.293 338.653 483.879 338.74 483.439 338.74C482.999 338.74 482.579 338.653 482.179 338.48C481.793 338.307 481.453 338.06 481.159 337.74C480.866 337.407 480.633 337 480.459 336.52C480.299 336.027 480.219 335.467 480.219 334.84ZM478.419 334.84C478.419 335.6 478.526 336.307 478.739 336.96C478.953 337.613 479.273 338.187 479.699 338.68C480.126 339.16 480.653 339.54 481.279 339.82C481.906 340.087 482.626 340.22 483.439 340.22C484.266 340.22 484.986 340.087 485.599 339.82C486.226 339.54 486.753 339.16 487.179 338.68C487.606 338.187 487.926 337.613 488.139 336.96C488.353 336.307 488.459 335.6 488.459 334.84C488.459 334.08 488.353 333.373 488.139 332.72C487.926 332.053 487.606 331.48 487.179 331C486.753 330.507 486.226 330.12 485.599 329.84C484.986 329.56 484.266 329.42 483.439 329.42C482.626 329.42 481.906 329.56 481.279 329.84C480.653 330.12 480.126 330.507 479.699 331C479.273 331.48 478.953 332.053 478.739 332.72C478.526 333.373 478.419 334.08 478.419 334.84ZM492.704 334.92C492.704 334.413 492.757 333.92 492.864 333.44C492.97 332.96 493.144 332.533 493.384 332.16C493.624 331.787 493.944 331.487 494.344 331.26C494.744 331.033 495.23 330.92 495.804 330.92C496.39 330.92 496.89 331.033 497.304 331.26C497.717 331.473 498.05 331.76 498.304 332.12C498.57 332.48 498.764 332.9 498.884 333.38C499.004 333.847 499.064 334.333 499.064 334.84C499.064 335.32 499.004 335.793 498.884 336.26C498.777 336.727 498.597 337.147 498.344 337.52C498.09 337.88 497.764 338.173 497.364 338.4C496.964 338.627 496.477 338.74 495.904 338.74C495.357 338.74 494.877 338.633 494.464 338.42C494.064 338.207 493.73 337.92 493.464 337.56C493.21 337.2 493.017 336.793 492.884 336.34C492.764 335.873 492.704 335.4 492.704 334.92ZM500.704 340V325.72H499.004V331.04H498.964C498.777 330.733 498.544 330.48 498.264 330.28C497.997 330.067 497.71 329.9 497.404 329.78C497.097 329.647 496.79 329.553 496.484 329.5C496.177 329.447 495.89 329.42 495.624 329.42C494.837 329.42 494.144 329.567 493.544 329.86C492.957 330.14 492.464 330.527 492.064 331.02C491.677 331.5 491.384 332.067 491.184 332.72C490.997 333.373 490.904 334.067 490.904 334.8C490.904 335.533 491.004 336.227 491.204 336.88C491.404 337.533 491.697 338.107 492.084 338.6C492.484 339.093 492.977 339.487 493.564 339.78C494.164 340.073 494.864 340.22 495.664 340.22C496.384 340.22 497.044 340.093 497.644 339.84C498.244 339.587 498.684 339.173 498.964 338.6H499.004V340H500.704ZM511.499 333.84H505.559C505.586 333.44 505.672 333.067 505.819 332.72C505.966 332.36 506.166 332.047 506.419 331.78C506.672 331.513 506.972 331.307 507.319 331.16C507.679 331 508.079 330.92 508.519 330.92C508.946 330.92 509.332 331 509.679 331.16C510.039 331.307 510.346 331.513 510.599 331.78C510.866 332.033 511.072 332.34 511.219 332.7C511.379 333.06 511.472 333.44 511.499 333.84ZM513.139 336.72H511.459C511.312 337.4 511.006 337.907 510.539 338.24C510.086 338.573 509.499 338.74 508.779 338.74C508.219 338.74 507.732 338.647 507.319 338.46C506.906 338.273 506.566 338.027 506.299 337.72C506.032 337.4 505.839 337.04 505.719 336.64C505.599 336.227 505.546 335.793 505.559 335.34H513.299C513.326 334.713 513.266 334.053 513.119 333.36C512.986 332.667 512.732 332.027 512.359 331.44C511.999 330.853 511.512 330.373 510.899 330C510.299 329.613 509.539 329.42 508.619 329.42C507.912 329.42 507.259 329.553 506.659 329.82C506.072 330.087 505.559 330.46 505.119 330.94C504.692 331.42 504.359 331.987 504.119 332.64C503.879 333.293 503.759 334.013 503.759 334.8C503.786 335.587 503.899 336.313 504.099 336.98C504.312 337.647 504.626 338.22 505.039 338.7C505.452 339.18 505.959 339.553 506.559 339.82C507.172 340.087 507.892 340.22 508.719 340.22C509.892 340.22 510.866 339.927 511.639 339.34C512.412 338.753 512.912 337.88 513.139 336.72ZM522.728 325.72V340H524.428V325.72H522.728ZM529.861 327.8V325.72H528.161V327.8H529.861ZM528.161 329.66V340H529.861V329.66H528.161ZM533.555 325.72V340H535.255V338.62H535.295C535.482 338.927 535.708 339.187 535.975 339.4C536.255 339.6 536.548 339.76 536.855 339.88C537.162 340 537.468 340.087 537.775 340.14C538.095 340.193 538.382 340.22 538.635 340.22C539.422 340.22 540.108 340.08 540.695 339.8C541.295 339.52 541.788 339.14 542.175 338.66C542.575 338.167 542.868 337.593 543.055 336.94C543.255 336.287 543.355 335.593 543.355 334.86C543.355 334.127 543.255 333.433 543.055 332.78C542.855 332.127 542.555 331.553 542.155 331.06C541.768 330.553 541.275 330.153 540.675 329.86C540.088 329.567 539.395 329.42 538.595 329.42C537.875 329.42 537.215 329.553 536.615 329.82C536.015 330.073 535.575 330.487 535.295 331.06H535.255V325.72H533.555ZM541.555 334.74C541.555 335.247 541.502 335.74 541.395 336.22C541.288 336.7 541.115 337.127 540.875 337.5C540.635 337.873 540.315 338.173 539.915 338.4C539.528 338.627 539.042 338.74 538.455 338.74C537.868 338.74 537.368 338.633 536.955 338.42C536.542 338.193 536.202 337.9 535.935 337.54C535.682 337.18 535.495 336.767 535.375 336.3C535.255 335.82 535.195 335.327 535.195 334.82C535.195 334.34 535.248 333.867 535.355 333.4C535.475 332.933 535.662 332.52 535.915 332.16C536.168 331.787 536.495 331.487 536.895 331.26C537.295 331.033 537.782 330.92 538.355 330.92C538.902 330.92 539.375 331.027 539.775 331.24C540.188 331.453 540.522 331.74 540.775 332.1C541.042 332.46 541.235 332.873 541.355 333.34C541.488 333.793 541.555 334.26 541.555 334.74Z" fill="#E5E5E5"/>
<path d="M396.055 80.1416L288.528 141.878L288.833 264.845L396.462 203.007L396.055 80.1416Z" stroke="#E5E5E5" stroke-width="2" stroke-miterlimit="10" stroke-linejoin="round"/>
<path d="M396.055 80.1414L288.528 18L181.001 79.7365L288.528 141.878L396.055 80.1414Z" stroke="#E5E5E5" stroke-width="2" stroke-miterlimit="10" stroke-linejoin="round"/>
<path d="M288.527 141.878L181 79.7363L181.305 202.602L288.832 264.845L288.527 141.878Z" stroke="#E5E5E5" stroke-width="2" stroke-miterlimit="10" stroke-linejoin="round"/>
</svg>
