<svg width="547" height="528" viewBox="0 0 547 528" fill="none" xmlns="http://www.w3.org/2000/svg">
<path d="M296.279 1.13672L257.248 56.3657" stroke="#4E4E4E" stroke-width="2" stroke-linecap="round" stroke-linejoin="round"/>
<path d="M206.688 85.8215L257.166 56.3657L335.683 101.713" stroke="#4E4E4E" stroke-width="2" stroke-linecap="round" stroke-linejoin="round"/>
<path d="M284.938 131.326L206.498 85.898L245.942 30.3086" stroke="#E5E5E5" stroke-width="2" stroke-linecap="round" stroke-linejoin="round"/>
<path d="M245.907 30.3087L284.938 131.326L335.972 101.965L296.39 1L245.907 30.3087Z" stroke="#E5E5E5" stroke-width="2" stroke-linecap="round" stroke-linejoin="round"/>
<path d="M71.251 486.193C87.3491 495.485 87.4922 510.637 71.4656 519.928C55.439 529.22 29.2526 529.22 13.1545 519.928C-2.94368 510.637 -3.08677 495.485 12.9398 486.193C28.9665 476.83 55.1528 476.83 71.251 486.193ZM13.2976 519.857C29.3242 529.149 55.3674 529.149 71.3225 519.857C87.2776 510.566 87.206 495.556 71.1079 486.265C55.0813 476.973 29.038 476.973 13.0829 486.265C-2.87213 495.485 -2.80058 510.566 13.2976 519.857Z" stroke="#4E4E4E" stroke-width="2" stroke-miterlimit="10"/>
<path d="M71.5371 398.782C87.6353 408.073 87.7784 423.225 71.7517 432.517C55.7251 441.808 29.5388 441.808 13.4406 432.517C-2.65754 423.225 -2.80064 408.073 13.226 398.782C29.2526 389.49 55.3674 389.49 71.5371 398.782ZM13.5122 432.445C29.5388 441.737 55.582 441.737 71.5371 432.445C87.4922 423.154 87.4206 408.145 71.3225 398.853C55.2243 389.562 29.3241 389.562 13.3691 398.853C-2.586 408.073 -2.51445 423.154 13.5122 432.445Z" stroke="#E5E5E5" stroke-width="2" stroke-miterlimit="10"/>
<path d="M83.6997 415.792L83.4851 503.204C83.4851 509.279 79.4784 515.354 71.5367 519.929C55.5101 529.22 29.3237 529.22 13.2256 519.929C5.1407 515.283 1.0625 509.065 1.0625 502.918L1.27714 415.506C1.27714 421.653 5.2838 427.8 13.4402 432.517C29.5384 441.808 55.7247 441.808 71.7513 432.517C79.6931 427.871 83.6282 421.796 83.6997 415.792Z" stroke="#E5E5E5" stroke-width="2" stroke-miterlimit="10"/>
<path d="M260.582 189.028L260.582 130.038" stroke="#4E4E4E" stroke-width="2" stroke-linecap="round" stroke-linejoin="round"/>
<path d="M260.582 284.889L260.582 225.898" stroke="#4E4E4E" stroke-width="2" stroke-linecap="round" stroke-linejoin="round"/>
<path d="M297.49 357.398L348.631 386.893" stroke="#4E4E4E" stroke-width="2" stroke-linecap="round" stroke-linejoin="round"/>
<path d="M228.066 357.398L176.926 386.894" stroke="#4E4E4E" stroke-width="2" stroke-linecap="round" stroke-linejoin="round"/>
<path d="M381.761 405.942L432.287 434.823" stroke="#4E4E4E" stroke-width="2" stroke-linecap="round" stroke-linejoin="round"/>
<path d="M143.794 405.946L93.2689 434.827" stroke="#4E4E4E" stroke-width="2" stroke-linecap="round" stroke-linejoin="round"/>
<path d="M260.582 188.799C270.902 188.799 279.266 197.156 279.266 207.463C279.266 217.77 270.902 226.126 260.582 226.126C250.263 226.126 241.898 217.77 241.898 207.463C241.898 197.156 250.263 188.799 260.582 188.799Z" stroke="#4E4E4E" stroke-width="2" stroke-linecap="round" stroke-linejoin="round"/>
<path d="M260.582 216.066L260.582 198.86" stroke="#4E4E4E" stroke-width="2" stroke-linecap="round" stroke-linejoin="round"/>
<path d="M269.194 207.463L251.971 207.463" stroke="#4E4E4E" stroke-width="2" stroke-linecap="round" stroke-linejoin="round"/>
<path d="M365.154 378.061C375.474 378.061 383.838 386.418 383.838 396.725C383.838 407.031 375.474 415.388 365.154 415.388C354.834 415.388 346.47 407.031 346.47 396.725C346.47 386.418 354.834 378.061 365.154 378.061Z" stroke="#4E4E4E" stroke-width="2" stroke-linecap="round" stroke-linejoin="round"/>
<path d="M365.153 405.328L365.153 388.122" stroke="#4E4E4E" stroke-width="2" stroke-linecap="round" stroke-linejoin="round"/>
<path d="M373.766 396.725L356.542 396.725" stroke="#4E4E4E" stroke-width="2" stroke-linecap="round" stroke-linejoin="round"/>
<path d="M160.932 378.061C171.252 378.061 179.616 386.418 179.616 396.725C179.616 407.031 171.252 415.388 160.932 415.388C150.612 415.388 142.248 407.031 142.248 396.725C142.248 386.418 150.612 378.061 160.932 378.061Z" stroke="#4E4E4E" stroke-width="2" stroke-linecap="round" stroke-linejoin="round"/>
<path d="M160.932 405.328L160.932 388.122" stroke="#4E4E4E" stroke-width="2" stroke-linecap="round" stroke-linejoin="round"/>
<path d="M169.544 396.725L152.32 396.725" stroke="#4E4E4E" stroke-width="2" stroke-linecap="round" stroke-linejoin="round"/>
<path d="M437.738 472.925C437.738 456.236 461.973 442.707 491.869 442.707C521.765 442.707 546 456.236 546 472.925" stroke="#4E4E4E" stroke-width="2" stroke-linecap="round" stroke-linejoin="round"/>
<path d="M491.869 527C475.162 527 461.619 502.79 461.619 472.925C461.619 443.061 475.162 418.851 491.869 418.851" stroke="#4E4E4E" stroke-width="2" stroke-linecap="round" stroke-linejoin="round"/>
<path d="M491.869 527C508.576 527 522.119 502.79 522.119 472.925C522.119 443.061 508.576 418.851 491.869 418.851" stroke="#E5E5E5" stroke-width="2" stroke-linecap="round" stroke-linejoin="round"/>
<path d="M437.738 472.925C437.738 489.614 461.973 503.144 491.869 503.144C521.765 503.144 546 489.614 546 472.925" stroke="#E5E5E5" stroke-width="2" stroke-linecap="round" stroke-linejoin="round"/>
<ellipse cx="491.869" cy="472.925" rx="54.1309" ry="54.0748" stroke="#E5E5E5" stroke-width="2" stroke-linecap="round" stroke-linejoin="round"/>
<path d="M260.988 299.601C269.436 299.601 277.381 302.927 283.356 308.973C289.33 315.019 292.623 323.05 292.623 331.593C292.623 340.137 289.334 348.172 283.356 354.214C277.377 360.256 269.436 363.586 260.988 363.586C252.54 363.586 244.595 360.26 238.621 354.214C232.642 348.172 229.353 340.137 229.353 331.593C229.353 323.05 232.642 315.015 238.621 308.973C244.595 302.927 252.54 299.601 260.988 299.601ZM260.988 294.679C240.827 294.679 224.486 311.204 224.486 331.593C224.486 351.983 240.827 368.508 260.988 368.508C281.149 368.508 297.49 351.983 297.49 331.593C297.49 311.204 281.149 294.679 260.988 294.679Z" fill="#E5E5E5"/>
<path d="M239.088 321.688L239.088 341.431C239.088 342.775 240.177 343.865 241.521 343.865C242.865 343.865 243.955 342.775 243.955 341.431L243.955 321.688C243.955 320.344 242.865 319.255 241.521 319.255C240.177 319.255 239.088 320.344 239.088 321.688Z" fill="#E5E5E5"/>
<path d="M248.822 321.688L248.822 341.431C248.822 342.775 249.912 343.865 251.256 343.865C252.6 343.865 253.689 342.775 253.689 341.431L253.689 321.688C253.689 320.344 252.6 319.255 251.256 319.255C249.912 319.255 248.822 320.344 248.822 321.688Z" fill="#E5E5E5"/>
<path d="M258.555 321.688L258.555 341.431C258.555 342.775 259.644 343.865 260.988 343.865C262.332 343.865 263.422 342.775 263.422 341.431L263.422 321.688C263.422 320.344 262.332 319.255 260.988 319.255C259.644 319.255 258.555 320.344 258.555 321.688Z" fill="#E5E5E5"/>
<path d="M278.023 321.688L278.023 341.431C278.023 342.775 279.113 343.865 280.457 343.865C281.801 343.865 282.89 342.775 282.89 341.431L282.89 321.688C282.89 320.344 281.801 319.255 280.457 319.255C279.113 319.255 278.023 320.344 278.023 321.688Z" fill="#E5E5E5"/>
</svg>
