<svg width="797" height="561" viewBox="0 0 797 561" fill="none" xmlns="http://www.w3.org/2000/svg">
<path d="M483.759 117.401L484.064 240.368L376.538 302.105" stroke="#4E4E4E" stroke-width="2" stroke-miterlimit="10" stroke-linejoin="round"/>
<path d="M591.694 302.409L484.066 240.267L483.76 117.402" stroke="#4E4E4E" stroke-width="2" stroke-miterlimit="10" stroke-linejoin="round"/>
<path d="M591.287 179.543L483.76 241.279L484.066 364.246L591.694 302.409L591.287 179.543Z" stroke="#E5E5E5" stroke-width="2" stroke-miterlimit="10" stroke-linejoin="round"/>
<path d="M591.287 179.543L483.76 117.401L376.233 179.138L483.76 241.279L591.287 179.543Z" stroke="#E5E5E5" stroke-width="2" stroke-miterlimit="10" stroke-linejoin="round"/>
<path d="M483.759 241.279L376.232 179.138L376.538 302.003L484.064 364.246L483.759 241.279Z" stroke="#E5E5E5" stroke-width="2" stroke-miterlimit="10" stroke-linejoin="round"/>
<path d="M376 384.061L114 538.061" stroke="#4E4E4E" stroke-linecap="round" stroke-linejoin="round"/>
<path d="M222 519L151 560" stroke="#4E4E4E" stroke-linecap="round"/>
<path d="M131 398L1 472" stroke="#4E4E4E" stroke-linecap="round"/>
<path d="M569 87.5L505 125" stroke="#4E4E4E" stroke-linecap="round" stroke-linejoin="round"/>
<path d="M739 201L595 285" stroke="#4E4E4E" stroke-linecap="round" stroke-linejoin="round"/>
<path d="M749 71L580.5 169.5" stroke="#4E4E4E" stroke-linecap="round" stroke-linejoin="round"/>
<path d="M258 409L74 515" stroke="#4E4E4E" stroke-linecap="round" stroke-linejoin="round"/>
<circle cx="281.688" cy="395.589" r="6" stroke="#E5E5E5" stroke-width="2"/>
<circle cx="281.688" cy="395.589" r="17.5" stroke="#4E4E4E"/>
<path d="M245.964 379.597V378.697H241.764L240.972 383.113L241.848 383.161C242.048 382.921 242.276 382.729 242.532 382.585C242.796 382.433 243.096 382.357 243.432 382.357C243.72 382.357 243.98 382.405 244.212 382.501C244.452 382.597 244.656 382.733 244.824 382.909C244.992 383.077 245.12 383.281 245.208 383.521C245.304 383.753 245.352 384.009 245.352 384.289C245.352 384.625 245.304 384.921 245.208 385.177C245.112 385.425 244.98 385.633 244.812 385.801C244.652 385.969 244.46 386.097 244.236 386.185C244.02 386.265 243.792 386.305 243.552 386.305C243.296 386.305 243.06 386.269 242.844 386.197C242.636 386.117 242.452 386.009 242.292 385.873C242.14 385.729 242.016 385.565 241.92 385.381C241.832 385.189 241.78 384.985 241.764 384.769H240.744C240.752 385.153 240.828 385.497 240.972 385.801C241.116 386.105 241.312 386.361 241.56 386.569C241.808 386.769 242.092 386.925 242.412 387.037C242.74 387.141 243.088 387.193 243.456 387.193C243.952 387.193 244.384 387.117 244.752 386.965C245.128 386.805 245.44 386.593 245.688 386.329C245.936 386.065 246.12 385.765 246.24 385.429C246.368 385.085 246.432 384.733 246.432 384.373C246.432 383.885 246.36 383.461 246.216 383.101C246.072 382.733 245.876 382.429 245.628 382.189C245.38 381.941 245.088 381.757 244.752 381.637C244.416 381.517 244.06 381.457 243.684 381.457C243.396 381.457 243.104 381.509 242.808 381.613C242.52 381.709 242.284 381.861 242.1 382.069L242.076 382.045L242.532 379.597H245.964ZM248.988 385.729V387.061H250.32V385.729H248.988ZM256.604 387.061V378.553H255.824C255.768 378.873 255.664 379.137 255.512 379.345C255.36 379.553 255.172 379.717 254.948 379.837C254.732 379.957 254.488 380.041 254.216 380.089C253.944 380.129 253.664 380.149 253.376 380.149V380.965H255.584V387.061H256.604Z" fill="#E5E5E5"/>
<circle cx="245.688" cy="506.589" r="6" stroke="#E5E5E5" stroke-width="2"/>
<circle cx="245.688" cy="506.589" r="17.5" stroke="#4E4E4E"/>
<path d="M184.827 489.493V498.061H185.967V494.137H189.903V493.177H185.967V490.453H190.455V489.493H184.827ZM193.857 493.177V490.453H196.137C196.385 490.453 196.617 490.469 196.833 490.501C197.057 490.525 197.253 490.585 197.421 490.681C197.589 490.777 197.721 490.913 197.817 491.089C197.913 491.265 197.961 491.505 197.961 491.809C197.961 492.265 197.817 492.609 197.529 492.841C197.249 493.065 196.785 493.177 196.137 493.177H193.857ZM192.717 489.493V498.061H196.857C197.281 498.061 197.653 497.993 197.973 497.857C198.301 497.713 198.573 497.529 198.789 497.305C199.013 497.073 199.181 496.809 199.293 496.513C199.405 496.217 199.461 495.913 199.461 495.601C199.461 495.073 199.321 494.625 199.041 494.257C198.761 493.889 198.357 493.649 197.829 493.537V493.513C198.237 493.353 198.549 493.109 198.765 492.781C198.989 492.445 199.101 492.049 199.101 491.593C199.101 491.161 199.001 490.797 198.801 490.501C198.609 490.205 198.373 489.973 198.093 489.805C197.965 489.725 197.809 489.665 197.625 489.625C197.449 489.585 197.257 489.557 197.049 489.541C196.841 489.517 196.629 489.505 196.413 489.505C196.205 489.497 196.009 489.493 195.825 489.493H192.717ZM193.857 497.101V494.137H196.461C196.701 494.137 196.933 494.161 197.157 494.209C197.381 494.249 197.577 494.325 197.745 494.437C197.921 494.541 198.061 494.685 198.165 494.869C198.269 495.053 198.321 495.285 198.321 495.565C198.321 496.045 198.177 496.421 197.889 496.693C197.609 496.965 197.217 497.101 196.713 497.101H193.857ZM203.612 493.201V494.065C203.804 494.041 204.008 494.029 204.224 494.029C204.48 494.029 204.716 494.065 204.932 494.137C205.156 494.201 205.348 494.305 205.508 494.449C205.668 494.585 205.796 494.757 205.892 494.965C205.988 495.165 206.036 495.397 206.036 495.661C206.036 495.917 205.984 496.149 205.88 496.357C205.784 496.557 205.652 496.729 205.484 496.873C205.316 497.009 205.12 497.117 204.896 497.197C204.672 497.269 204.436 497.305 204.188 497.305C203.604 497.305 203.16 497.133 202.856 496.789C202.552 496.437 202.392 495.985 202.376 495.433H201.356C201.348 495.873 201.408 496.265 201.536 496.609C201.672 496.953 201.864 497.245 202.112 497.485C202.36 497.717 202.66 497.893 203.012 498.013C203.364 498.133 203.756 498.193 204.188 498.193C204.588 498.193 204.964 498.141 205.316 498.037C205.676 497.925 205.988 497.761 206.252 497.545C206.516 497.329 206.724 497.061 206.876 496.741C207.036 496.413 207.116 496.037 207.116 495.613C207.116 495.101 206.988 494.657 206.732 494.281C206.484 493.905 206.1 493.661 205.58 493.549V493.525C205.916 493.373 206.196 493.149 206.42 492.853C206.644 492.557 206.756 492.217 206.756 491.833C206.756 491.441 206.688 491.101 206.552 490.813C206.424 490.525 206.244 490.289 206.012 490.105C205.78 489.921 205.504 489.785 205.184 489.697C204.872 489.601 204.532 489.553 204.164 489.553C203.74 489.553 203.364 489.621 203.036 489.757C202.716 489.893 202.448 490.081 202.232 490.321C202.016 490.561 201.848 490.849 201.728 491.185C201.616 491.521 201.552 491.893 201.536 492.301H202.556C202.556 492.053 202.588 491.817 202.652 491.593C202.716 491.369 202.812 491.173 202.94 491.005C203.076 490.837 203.244 490.705 203.444 490.609C203.652 490.505 203.892 490.453 204.164 490.453C204.596 490.453 204.956 490.569 205.244 490.801C205.532 491.025 205.676 491.365 205.676 491.821C205.676 492.045 205.632 492.245 205.544 492.421C205.456 492.597 205.336 492.745 205.184 492.865C205.04 492.977 204.868 493.065 204.668 493.129C204.476 493.185 204.272 493.213 204.056 493.213H203.84C203.8 493.213 203.76 493.213 203.72 493.213C203.688 493.213 203.652 493.209 203.612 493.201ZM213.632 491.725H214.652C214.588 491.021 214.348 490.485 213.932 490.117C213.516 489.741 212.956 489.553 212.252 489.553C211.644 489.553 211.14 489.681 210.74 489.937C210.34 490.193 210.02 490.533 209.78 490.957C209.54 491.381 209.368 491.869 209.264 492.421C209.168 492.965 209.12 493.529 209.12 494.113C209.12 494.561 209.152 495.025 209.216 495.505C209.288 495.985 209.428 496.425 209.636 496.825C209.844 497.225 210.14 497.553 210.524 497.809C210.908 498.065 211.416 498.193 212.048 498.193C212.584 498.193 213.032 498.105 213.392 497.929C213.76 497.745 214.052 497.517 214.268 497.245C214.492 496.965 214.652 496.657 214.748 496.321C214.844 495.985 214.892 495.661 214.892 495.349C214.892 494.957 214.832 494.593 214.712 494.257C214.592 493.921 214.42 493.629 214.196 493.381C213.98 493.133 213.708 492.941 213.38 492.805C213.06 492.661 212.696 492.589 212.288 492.589C211.824 492.589 211.412 492.677 211.052 492.853C210.7 493.029 210.404 493.313 210.164 493.705L210.14 493.681C210.148 493.353 210.18 493.001 210.236 492.625C210.292 492.249 210.392 491.901 210.536 491.581C210.688 491.253 210.896 490.985 211.16 490.777C211.424 490.561 211.772 490.453 212.204 490.453C212.612 490.453 212.94 490.569 213.188 490.801C213.436 491.033 213.584 491.341 213.632 491.725ZM212.096 493.489C212.384 493.489 212.636 493.541 212.852 493.645C213.068 493.749 213.248 493.889 213.392 494.065C213.536 494.233 213.64 494.437 213.704 494.677C213.776 494.909 213.812 495.157 213.812 495.421C213.812 495.669 213.772 495.909 213.692 496.141C213.62 496.365 213.512 496.565 213.368 496.741C213.224 496.917 213.044 497.057 212.828 497.161C212.62 497.257 212.376 497.305 212.096 497.305C211.816 497.305 211.564 497.257 211.34 497.161C211.124 497.057 210.94 496.921 210.788 496.753C210.644 496.585 210.532 496.385 210.452 496.153C210.372 495.921 210.332 495.673 210.332 495.409C210.332 495.145 210.368 494.897 210.44 494.665C210.52 494.425 210.636 494.221 210.788 494.053C210.94 493.877 211.124 493.741 211.34 493.645C211.556 493.541 211.808 493.489 212.096 493.489ZM217.916 493.873C217.916 493.665 217.916 493.437 217.916 493.189C217.924 492.933 217.944 492.681 217.976 492.433C218.016 492.177 218.068 491.929 218.132 491.689C218.204 491.449 218.304 491.241 218.432 491.065C218.568 490.881 218.736 490.733 218.936 490.621C219.136 490.509 219.38 490.453 219.668 490.453C219.956 490.453 220.2 490.509 220.4 490.621C220.6 490.733 220.764 490.881 220.892 491.065C221.028 491.241 221.128 491.449 221.192 491.689C221.264 491.929 221.316 492.177 221.348 492.433C221.388 492.681 221.408 492.933 221.408 493.189C221.416 493.437 221.42 493.665 221.42 493.873C221.42 494.193 221.408 494.553 221.384 494.953C221.368 495.345 221.304 495.717 221.192 496.069C221.088 496.413 220.916 496.705 220.676 496.945C220.436 497.185 220.1 497.305 219.668 497.305C219.236 497.305 218.9 497.185 218.66 496.945C218.42 496.705 218.244 496.413 218.132 496.069C218.028 495.717 217.964 495.345 217.94 494.953C217.924 494.553 217.916 494.193 217.916 493.873ZM216.836 493.885C216.836 494.197 216.844 494.521 216.86 494.857C216.876 495.193 216.916 495.521 216.98 495.841C217.044 496.161 217.136 496.465 217.256 496.753C217.376 497.033 217.54 497.281 217.748 497.497C217.956 497.713 218.216 497.885 218.528 498.013C218.848 498.133 219.228 498.193 219.668 498.193C220.116 498.193 220.496 498.133 220.808 498.013C221.12 497.885 221.38 497.713 221.588 497.497C221.796 497.281 221.96 497.033 222.08 496.753C222.2 496.465 222.292 496.161 222.356 495.841C222.42 495.521 222.46 495.193 222.476 494.857C222.492 494.521 222.5 494.197 222.5 493.885C222.5 493.573 222.492 493.249 222.476 492.913C222.46 492.577 222.42 492.249 222.356 491.929C222.292 491.609 222.2 491.305 222.08 491.017C221.96 490.729 221.796 490.477 221.588 490.261C221.38 490.045 221.116 489.873 220.796 489.745C220.484 489.617 220.108 489.553 219.668 489.553C219.228 489.553 218.848 489.617 218.528 489.745C218.216 489.873 217.956 490.045 217.748 490.261C217.54 490.477 217.376 490.729 217.256 491.017C217.136 491.305 217.044 491.609 216.98 491.929C216.916 492.249 216.876 492.577 216.86 492.913C216.844 493.249 216.836 493.573 216.836 493.885Z" fill="#E5E5E5"/>
<circle cx="154.688" cy="383.589" r="6" stroke="#E5E5E5" stroke-width="2"/>
<circle cx="154.688" cy="383.589" r="17.5" stroke="#4E4E4E"/>
<path d="M89.4901 371.521L90.9421 367.525H90.9661L92.3941 371.521H89.4901ZM90.3421 366.493L87.0061 375.061H88.1701L89.1301 372.481H92.7541L93.6901 375.061H94.9501L91.6021 366.493H90.3421ZM97.6378 367.453V375.061H98.7778V367.453H101.634V366.493H94.7818V367.453H97.6378ZM103.608 366.493V375.061H104.688V367.933H104.712L107.388 375.061H108.36L111.036 367.933H111.06V375.061H112.14V366.493H110.58L107.868 373.693L105.168 366.493H103.608ZM115.698 370.777C115.698 370.345 115.754 369.921 115.866 369.505C115.978 369.081 116.154 368.701 116.394 368.365C116.634 368.029 116.942 367.761 117.318 367.561C117.694 367.353 118.142 367.249 118.662 367.249C119.182 367.249 119.63 367.353 120.006 367.561C120.382 367.761 120.69 368.029 120.93 368.365C121.17 368.701 121.346 369.081 121.458 369.505C121.57 369.921 121.626 370.345 121.626 370.777C121.626 371.209 121.57 371.637 121.458 372.061C121.346 372.477 121.17 372.853 120.93 373.189C120.69 373.525 120.382 373.797 120.006 374.005C119.63 374.205 119.182 374.305 118.662 374.305C118.142 374.305 117.694 374.205 117.318 374.005C116.942 373.797 116.634 373.525 116.394 373.189C116.154 372.853 115.978 372.477 115.866 372.061C115.754 371.637 115.698 371.209 115.698 370.777ZM114.558 370.777C114.558 371.361 114.642 371.925 114.81 372.469C114.986 373.005 115.246 373.481 115.59 373.897C115.934 374.313 116.362 374.645 116.874 374.893C117.386 375.133 117.982 375.253 118.662 375.253C119.342 375.253 119.938 375.133 120.45 374.893C120.962 374.645 121.39 374.313 121.734 373.897C122.078 373.481 122.334 373.005 122.502 372.469C122.678 371.925 122.766 371.361 122.766 370.777C122.766 370.193 122.678 369.633 122.502 369.097C122.334 368.553 122.078 368.073 121.734 367.657C121.39 367.241 120.962 366.909 120.45 366.661C119.938 366.413 119.342 366.289 118.662 366.289C117.982 366.289 117.386 366.413 116.874 366.661C116.362 366.909 115.934 367.241 115.59 367.657C115.246 368.073 114.986 368.553 114.81 369.097C114.642 369.633 114.558 370.193 114.558 370.777ZM130.111 369.001H131.191C131.175 368.529 131.083 368.125 130.915 367.789C130.755 367.445 130.531 367.161 130.243 366.937C129.963 366.713 129.635 366.549 129.259 366.445C128.883 366.341 128.475 366.289 128.035 366.289C127.643 366.289 127.259 366.341 126.883 366.445C126.515 366.541 126.183 366.693 125.887 366.901C125.599 367.101 125.367 367.361 125.191 367.681C125.015 367.993 124.927 368.365 124.927 368.797C124.927 369.189 125.003 369.517 125.155 369.781C125.315 370.037 125.523 370.249 125.779 370.417C126.043 370.577 126.339 370.709 126.667 370.813C126.995 370.909 127.327 370.997 127.663 371.077C128.007 371.149 128.343 371.221 128.671 371.293C128.999 371.365 129.291 371.461 129.547 371.581C129.811 371.693 130.019 371.841 130.171 372.025C130.331 372.209 130.411 372.449 130.411 372.745C130.411 373.057 130.347 373.313 130.219 373.513C130.091 373.713 129.923 373.873 129.715 373.993C129.507 374.105 129.271 374.185 129.007 374.233C128.751 374.281 128.495 374.305 128.239 374.305C127.919 374.305 127.607 374.265 127.303 374.185C126.999 374.105 126.731 373.981 126.499 373.813C126.275 373.645 126.091 373.433 125.947 373.177C125.811 372.913 125.743 372.601 125.743 372.241H124.663C124.663 372.761 124.755 373.213 124.939 373.597C125.131 373.973 125.387 374.285 125.707 374.533C126.035 374.773 126.411 374.953 126.835 375.073C127.267 375.193 127.723 375.253 128.203 375.253C128.595 375.253 128.987 375.205 129.379 375.109C129.779 375.021 130.139 374.877 130.459 374.677C130.779 374.469 131.039 374.205 131.239 373.885C131.447 373.557 131.551 373.165 131.551 372.709C131.551 372.285 131.471 371.933 131.311 371.653C131.159 371.373 130.951 371.141 130.687 370.957C130.431 370.773 130.139 370.629 129.811 370.525C129.483 370.413 129.147 370.317 128.803 370.237C128.467 370.157 128.135 370.085 127.807 370.021C127.479 369.949 127.183 369.861 126.919 369.757C126.663 369.653 126.455 369.521 126.295 369.361C126.143 369.193 126.067 368.977 126.067 368.713C126.067 368.433 126.119 368.201 126.223 368.017C126.335 367.825 126.479 367.673 126.655 367.561C126.839 367.449 127.047 367.369 127.279 367.321C127.511 367.273 127.747 367.249 127.987 367.249C128.579 367.249 129.063 367.389 129.439 367.669C129.823 367.941 130.047 368.385 130.111 369.001Z" fill="#E5E5E5"/>
<circle cx="591.688" cy="74.5288" r="6" stroke="#E5E5E5" stroke-width="2"/>
<circle cx="591.688" cy="74.5288" r="17.5" stroke="#4E4E4E"/>
<path d="M462.261 57.432V66H463.341V58.872H463.365L466.041 66H467.013L469.689 58.872H469.713V66H470.793V57.432H469.233L466.521 64.632L463.821 57.432H462.261ZM475.166 62.46L476.618 58.464H476.642L478.07 62.46H475.166ZM476.018 57.432L472.682 66H473.846L474.806 63.42H478.43L479.366 66H480.626L477.278 57.432H476.018ZM488.495 60.012H489.635C489.571 59.556 489.435 59.156 489.227 58.812C489.019 58.46 488.759 58.168 488.447 57.936C488.135 57.704 487.779 57.528 487.379 57.408C486.979 57.288 486.555 57.228 486.107 57.228C485.451 57.228 484.867 57.348 484.355 57.588C483.851 57.82 483.427 58.14 483.083 58.548C482.747 58.956 482.491 59.436 482.315 59.988C482.139 60.532 482.051 61.116 482.051 61.74C482.051 62.364 482.131 62.948 482.291 63.492C482.459 64.036 482.707 64.508 483.035 64.908C483.363 65.308 483.775 65.624 484.271 65.856C484.767 66.08 485.347 66.192 486.011 66.192C487.107 66.192 487.971 65.892 488.603 65.292C489.235 64.692 489.607 63.852 489.719 62.772H488.579C488.555 63.124 488.483 63.452 488.363 63.756C488.243 64.06 488.075 64.324 487.859 64.548C487.651 64.764 487.399 64.936 487.103 65.064C486.815 65.184 486.483 65.244 486.107 65.244C485.595 65.244 485.155 65.148 484.787 64.956C484.419 64.764 484.115 64.508 483.875 64.188C483.643 63.86 483.471 63.48 483.359 63.048C483.247 62.608 483.191 62.144 483.191 61.656C483.191 61.208 483.247 60.776 483.359 60.36C483.471 59.944 483.643 59.576 483.875 59.256C484.115 58.928 484.415 58.668 484.775 58.476C485.143 58.284 485.583 58.188 486.095 58.188C486.695 58.188 487.211 58.34 487.643 58.644C488.083 58.948 488.367 59.404 488.495 60.012ZM492.131 57.432V66H493.271V62.076H497.783V66H498.923V57.432H497.783V61.116H493.271V57.432H492.131ZM509.467 66V57.492H508.687C508.631 57.812 508.527 58.076 508.375 58.284C508.223 58.492 508.035 58.656 507.811 58.776C507.595 58.896 507.351 58.98 507.079 59.028C506.807 59.068 506.527 59.088 506.239 59.088V59.904H508.447V66H509.467ZM523.095 59.94H524.175C524.159 59.468 524.067 59.064 523.899 58.728C523.739 58.384 523.515 58.1 523.227 57.876C522.947 57.652 522.619 57.488 522.243 57.384C521.867 57.28 521.459 57.228 521.019 57.228C520.627 57.228 520.243 57.28 519.867 57.384C519.499 57.48 519.167 57.632 518.871 57.84C518.583 58.04 518.351 58.3 518.175 58.62C517.999 58.932 517.911 59.304 517.911 59.736C517.911 60.128 517.987 60.456 518.139 60.72C518.299 60.976 518.507 61.188 518.763 61.356C519.027 61.516 519.323 61.648 519.651 61.752C519.979 61.848 520.311 61.936 520.647 62.016C520.991 62.088 521.327 62.16 521.655 62.232C521.983 62.304 522.275 62.4 522.531 62.52C522.795 62.632 523.003 62.78 523.155 62.964C523.315 63.148 523.395 63.388 523.395 63.684C523.395 63.996 523.331 64.252 523.203 64.452C523.075 64.652 522.907 64.812 522.699 64.932C522.491 65.044 522.255 65.124 521.991 65.172C521.735 65.22 521.479 65.244 521.223 65.244C520.903 65.244 520.591 65.204 520.287 65.124C519.983 65.044 519.715 64.92 519.483 64.752C519.259 64.584 519.075 64.372 518.931 64.116C518.795 63.852 518.727 63.54 518.727 63.18H517.647C517.647 63.7 517.739 64.152 517.923 64.536C518.115 64.912 518.371 65.224 518.691 65.472C519.019 65.712 519.395 65.892 519.819 66.012C520.251 66.132 520.707 66.192 521.187 66.192C521.579 66.192 521.971 66.144 522.363 66.048C522.763 65.96 523.123 65.816 523.443 65.616C523.763 65.408 524.023 65.144 524.223 64.824C524.431 64.496 524.535 64.104 524.535 63.648C524.535 63.224 524.455 62.872 524.295 62.592C524.143 62.312 523.935 62.08 523.671 61.896C523.415 61.712 523.123 61.568 522.795 61.464C522.467 61.352 522.131 61.256 521.787 61.176C521.451 61.096 521.119 61.024 520.791 60.96C520.463 60.888 520.167 60.8 519.903 60.696C519.647 60.592 519.439 60.46 519.279 60.3C519.127 60.132 519.051 59.916 519.051 59.652C519.051 59.372 519.103 59.14 519.207 58.956C519.319 58.764 519.463 58.612 519.639 58.5C519.823 58.388 520.031 58.308 520.263 58.26C520.495 58.212 520.731 58.188 520.971 58.188C521.563 58.188 522.047 58.328 522.423 58.608C522.807 58.88 523.031 59.324 523.095 59.94ZM528.06 61.536V58.392H530.292C530.94 58.392 531.412 58.528 531.708 58.8C532.012 59.064 532.164 59.452 532.164 59.964C532.164 60.476 532.012 60.868 531.708 61.14C531.412 61.412 530.94 61.544 530.292 61.536H528.06ZM526.92 57.432V66H528.06V62.496H530.676C531.54 62.504 532.192 62.284 532.632 61.836C533.08 61.388 533.304 60.764 533.304 59.964C533.304 59.164 533.08 58.544 532.632 58.104C532.192 57.656 531.54 57.432 530.676 57.432H526.92ZM536.287 62.46L537.739 58.464H537.763L539.191 62.46H536.287ZM537.139 57.432L533.803 66H534.967L535.927 63.42H539.551L540.487 66H541.747L538.399 57.432H537.139ZM544.435 58.392V66H545.575V58.392H548.431V57.432H541.579V58.392H544.435ZM550.429 57.432V66H551.569V57.432H550.429ZM555.963 62.46L557.415 58.464H557.439L558.867 62.46H555.963ZM556.815 57.432L553.479 66H554.643L555.603 63.42H559.227L560.163 66H561.423L558.075 57.432H556.815ZM563.268 57.432V66H568.944V65.04H564.408V57.432H563.268Z" fill="#E5E5E5"/>
<circle cx="761.688" cy="187.529" r="6" stroke="#E5E5E5" stroke-width="2"/>
<circle cx="761.688" cy="187.529" r="17.5" stroke="#4E4E4E"/>
<path d="M666.533 175.46L667.985 171.464H668.009L669.437 175.46H666.533ZM667.385 170.432L664.049 179H665.213L666.173 176.42H669.797L670.733 179H671.993L668.645 170.432H667.385ZM673.862 170.432V179H674.942V171.872H674.966L677.642 179H678.614L681.29 171.872H681.314V179H682.394V170.432H680.834L678.122 177.632L675.422 170.432H673.862ZM686.431 174.116V171.392H688.711C688.959 171.392 689.191 171.408 689.407 171.44C689.631 171.464 689.827 171.524 689.995 171.62C690.163 171.716 690.295 171.852 690.391 172.028C690.487 172.204 690.535 172.444 690.535 172.748C690.535 173.204 690.391 173.548 690.103 173.78C689.823 174.004 689.359 174.116 688.711 174.116H686.431ZM685.291 170.432V179H689.431C689.855 179 690.227 178.932 690.547 178.796C690.875 178.652 691.147 178.468 691.363 178.244C691.587 178.012 691.755 177.748 691.867 177.452C691.979 177.156 692.035 176.852 692.035 176.54C692.035 176.012 691.895 175.564 691.615 175.196C691.335 174.828 690.931 174.588 690.403 174.476V174.452C690.811 174.292 691.123 174.048 691.339 173.72C691.563 173.384 691.675 172.988 691.675 172.532C691.675 172.1 691.575 171.736 691.375 171.44C691.183 171.144 690.947 170.912 690.667 170.744C690.539 170.664 690.383 170.604 690.199 170.564C690.023 170.524 689.831 170.496 689.623 170.48C689.415 170.456 689.203 170.444 688.987 170.444C688.779 170.436 688.583 170.432 688.399 170.432H685.291ZM686.431 178.04V175.076H689.035C689.275 175.076 689.507 175.1 689.731 175.148C689.955 175.188 690.151 175.264 690.319 175.376C690.495 175.48 690.635 175.624 690.739 175.808C690.843 175.992 690.895 176.224 690.895 176.504C690.895 176.984 690.751 177.36 690.463 177.632C690.183 177.904 689.791 178.04 689.287 178.04H686.431ZM694.554 170.432V179H695.694V170.432H694.554ZM703.568 172.94H704.648C704.632 172.468 704.54 172.064 704.372 171.728C704.212 171.384 703.988 171.1 703.7 170.876C703.42 170.652 703.092 170.488 702.716 170.384C702.34 170.28 701.932 170.228 701.492 170.228C701.1 170.228 700.716 170.28 700.34 170.384C699.972 170.48 699.64 170.632 699.344 170.84C699.056 171.04 698.824 171.3 698.648 171.62C698.472 171.932 698.384 172.304 698.384 172.736C698.384 173.128 698.46 173.456 698.612 173.72C698.772 173.976 698.98 174.188 699.236 174.356C699.5 174.516 699.796 174.648 700.124 174.752C700.452 174.848 700.784 174.936 701.12 175.016C701.464 175.088 701.8 175.16 702.128 175.232C702.456 175.304 702.748 175.4 703.004 175.52C703.268 175.632 703.476 175.78 703.628 175.964C703.788 176.148 703.868 176.388 703.868 176.684C703.868 176.996 703.804 177.252 703.676 177.452C703.548 177.652 703.38 177.812 703.172 177.932C702.964 178.044 702.728 178.124 702.464 178.172C702.208 178.22 701.952 178.244 701.696 178.244C701.376 178.244 701.064 178.204 700.76 178.124C700.456 178.044 700.188 177.92 699.956 177.752C699.732 177.584 699.548 177.372 699.404 177.116C699.268 176.852 699.2 176.54 699.2 176.18H698.12C698.12 176.7 698.212 177.152 698.396 177.536C698.588 177.912 698.844 178.224 699.164 178.472C699.492 178.712 699.868 178.892 700.292 179.012C700.724 179.132 701.18 179.192 701.66 179.192C702.052 179.192 702.444 179.144 702.836 179.048C703.236 178.96 703.596 178.816 703.916 178.616C704.236 178.408 704.496 178.144 704.696 177.824C704.904 177.496 705.008 177.104 705.008 176.648C705.008 176.224 704.928 175.872 704.768 175.592C704.616 175.312 704.408 175.08 704.144 174.896C703.888 174.712 703.596 174.568 703.268 174.464C702.94 174.352 702.604 174.256 702.26 174.176C701.924 174.096 701.592 174.024 701.264 173.96C700.936 173.888 700.64 173.8 700.376 173.696C700.12 173.592 699.912 173.46 699.752 173.3C699.6 173.132 699.524 172.916 699.524 172.652C699.524 172.372 699.576 172.14 699.68 171.956C699.792 171.764 699.936 171.612 700.112 171.5C700.296 171.388 700.504 171.308 700.736 171.26C700.968 171.212 701.204 171.188 701.444 171.188C702.036 171.188 702.52 171.328 702.896 171.608C703.28 171.88 703.504 172.324 703.568 172.94ZM708.053 174.716C708.053 174.284 708.109 173.86 708.221 173.444C708.333 173.02 708.509 172.64 708.749 172.304C708.989 171.968 709.297 171.7 709.673 171.5C710.049 171.292 710.497 171.188 711.017 171.188C711.537 171.188 711.985 171.292 712.361 171.5C712.737 171.7 713.045 171.968 713.285 172.304C713.525 172.64 713.701 173.02 713.813 173.444C713.925 173.86 713.981 174.284 713.981 174.716C713.981 175.148 713.925 175.576 713.813 176C713.701 176.416 713.525 176.792 713.285 177.128C713.045 177.464 712.737 177.736 712.361 177.944C711.985 178.144 711.537 178.244 711.017 178.244C710.497 178.244 710.049 178.144 709.673 177.944C709.297 177.736 708.989 177.464 708.749 177.128C708.509 176.792 708.333 176.416 708.221 176C708.109 175.576 708.053 175.148 708.053 174.716ZM706.913 174.716C706.913 175.3 706.997 175.864 707.165 176.408C707.341 176.944 707.601 177.42 707.945 177.836C708.289 178.252 708.717 178.584 709.229 178.832C709.741 179.072 710.337 179.192 711.017 179.192C711.697 179.192 712.293 179.072 712.805 178.832C713.317 178.584 713.745 178.252 714.089 177.836C714.433 177.42 714.689 176.944 714.857 176.408C715.033 175.864 715.121 175.3 715.121 174.716C715.121 174.132 715.033 173.572 714.857 173.036C714.689 172.492 714.433 172.012 714.089 171.596C713.745 171.18 713.317 170.848 712.805 170.6C712.293 170.352 711.697 170.228 711.017 170.228C710.337 170.228 709.741 170.352 709.229 170.6C708.717 170.848 708.289 171.18 707.945 171.596C707.601 172.012 707.341 172.492 707.165 173.036C706.997 173.572 706.913 174.132 706.913 174.716ZM717.498 170.432V179H718.578V172.124H718.602L723.078 179H724.326V170.432H723.246V177.38H723.222L718.71 170.432H717.498ZM727.218 170.432V179H728.358V170.432H727.218ZM737.3 173.012H738.44C738.376 172.556 738.24 172.156 738.032 171.812C737.824 171.46 737.564 171.168 737.252 170.936C736.94 170.704 736.584 170.528 736.184 170.408C735.784 170.288 735.36 170.228 734.912 170.228C734.256 170.228 733.672 170.348 733.16 170.588C732.656 170.82 732.232 171.14 731.888 171.548C731.552 171.956 731.296 172.436 731.12 172.988C730.944 173.532 730.856 174.116 730.856 174.74C730.856 175.364 730.936 175.948 731.096 176.492C731.264 177.036 731.512 177.508 731.84 177.908C732.168 178.308 732.58 178.624 733.076 178.856C733.572 179.08 734.152 179.192 734.816 179.192C735.912 179.192 736.776 178.892 737.408 178.292C738.04 177.692 738.412 176.852 738.524 175.772H737.384C737.36 176.124 737.288 176.452 737.168 176.756C737.048 177.06 736.88 177.324 736.664 177.548C736.456 177.764 736.204 177.936 735.908 178.064C735.62 178.184 735.288 178.244 734.912 178.244C734.4 178.244 733.96 178.148 733.592 177.956C733.224 177.764 732.92 177.508 732.68 177.188C732.448 176.86 732.276 176.48 732.164 176.048C732.052 175.608 731.996 175.144 731.996 174.656C731.996 174.208 732.052 173.776 732.164 173.36C732.276 172.944 732.448 172.576 732.68 172.256C732.92 171.928 733.22 171.668 733.58 171.476C733.948 171.284 734.388 171.188 734.9 171.188C735.5 171.188 736.016 171.34 736.448 171.644C736.888 171.948 737.172 172.404 737.3 173.012Z" fill="#E5E5E5"/>
<circle cx="771.688" cy="57.5288" r="6" stroke="#E5E5E5" stroke-width="2"/>
<circle cx="771.688" cy="57.5288" r="17.5" stroke="#4E4E4E"/>
<path d="M724.424 41.512V40.636H718.916V41.596H723.38C722.932 42.068 722.512 42.584 722.12 43.144C721.736 43.704 721.396 44.3 721.1 44.932C720.804 45.556 720.56 46.212 720.368 46.9C720.184 47.58 720.068 48.28 720.02 49H721.16C721.2 48.336 721.312 47.652 721.496 46.948C721.68 46.244 721.916 45.56 722.204 44.896C722.5 44.232 722.836 43.608 723.212 43.024C723.588 42.44 723.992 41.936 724.424 41.512ZM726.98 47.668V49H728.312V47.668H726.98ZM734.596 49V40.492H733.816C733.76 40.812 733.656 41.076 733.504 41.284C733.352 41.492 733.164 41.656 732.94 41.776C732.724 41.896 732.48 41.98 732.208 42.028C731.936 42.068 731.656 42.088 731.368 42.088V42.904H733.576V49H734.596ZM738.988 47.668V49H740.32V47.668H738.988ZM746.4 46.108H743.544L746.376 41.944H746.4V46.108ZM747.36 46.108V40.492H746.544L742.668 46.024V47.008H746.4V49H747.36V47.008H748.512V46.108H747.36Z" fill="#E5E5E5"/>
<circle cx="398.688" cy="370.589" r="6" stroke="#E5E5E5" stroke-width="2"/>
<circle cx="398.688" cy="370.589" r="17.5" stroke="#4E4E4E"/>
<path d="M358.932 360.009H357.912C357.976 360.745 358.244 361.293 358.716 361.653C359.188 362.013 359.78 362.193 360.492 362.193C361.524 362.193 362.272 361.801 362.736 361.017C363.208 360.225 363.444 359.093 363.444 357.621C363.444 356.813 363.364 356.149 363.204 355.629C363.052 355.101 362.844 354.685 362.58 354.381C362.316 354.077 362.008 353.865 361.656 353.745C361.304 353.617 360.928 353.553 360.528 353.553C360.12 353.553 359.744 353.621 359.4 353.757C359.056 353.893 358.76 354.085 358.512 354.333C358.264 354.573 358.072 354.865 357.936 355.209C357.8 355.545 357.732 355.917 357.732 356.325C357.732 356.741 357.788 357.125 357.9 357.477C358.02 357.829 358.192 358.129 358.416 358.377C358.648 358.625 358.932 358.821 359.268 358.965C359.604 359.101 359.988 359.169 360.42 359.169C360.836 359.169 361.22 359.065 361.572 358.857C361.924 358.641 362.196 358.353 362.388 357.993L362.412 358.017C362.38 359.129 362.208 359.957 361.896 360.501C361.584 361.037 361.116 361.305 360.492 361.305C360.084 361.305 359.732 361.193 359.436 360.969C359.14 360.745 358.972 360.425 358.932 360.009ZM362.232 356.397C362.232 356.645 362.192 356.885 362.112 357.117C362.032 357.341 361.916 357.541 361.764 357.717C361.612 357.885 361.428 358.021 361.212 358.125C360.996 358.221 360.756 358.269 360.492 358.269C360.244 358.269 360.016 358.221 359.808 358.125C359.608 358.021 359.432 357.885 359.28 357.717C359.136 357.549 359.02 357.357 358.932 357.141C358.852 356.925 358.812 356.701 358.812 356.469C358.812 356.205 358.84 355.953 358.896 355.713C358.96 355.473 359.056 355.261 359.184 355.077C359.32 354.885 359.492 354.733 359.7 354.621C359.916 354.509 360.176 354.453 360.48 354.453C360.768 354.453 361.02 354.505 361.236 354.609C361.452 354.713 361.632 354.857 361.776 355.041C361.928 355.217 362.04 355.421 362.112 355.653C362.192 355.885 362.232 356.133 362.232 356.397ZM365.988 360.729V362.061H367.32V360.729H365.988ZM373.604 362.061V353.553H372.824C372.768 353.873 372.664 354.137 372.512 354.345C372.36 354.553 372.172 354.717 371.948 354.837C371.732 354.957 371.488 355.041 371.216 355.089C370.944 355.129 370.664 355.149 370.376 355.149V355.965H372.584V362.061H373.604Z" fill="#E5E5E5"/>
</svg>
