<?xml version="1.0" encoding="utf-8"?>
<!-- Generator: Adobe Illustrator 21.0.2, SVG Export Plug-In . SVG Version: 6.00 Build 0)  -->
<svg version="1.1" id="Layer_1" xmlns="http://www.w3.org/2000/svg" xmlns:xlink="http://www.w3.org/1999/xlink" x="0px" y="0px"
	 viewBox="0 0 460 503.8" style="enable-background:new 0 0 460 503.8;" xml:space="preserve">
<style type="text/css">
	.st0{fill:#F2F2F2;}
</style>
<title>Asset 1</title>
<g id="Layer_2">
	<g id="Layer_1-2">
		<polygon class="st0" points="59.7,468.1 59.3,468.1 33.8,394.2 0,394.2 0,501.7 22.5,501.7 22.5,426.3 22.8,426.3 49.5,501.7 
			68.1,501.7 94.8,425.5 95.1,425.5 95.1,501.7 117.6,501.7 117.6,394.2 83.8,394.2 		"/>
		<path class="st0" d="M200,443.9c0-18.6-19-22.1-34.7-22.1c-17.7,0-35.9,6-37.2,26v1.2h21.6c0,0,0.1-0.9,0.1-1.2l0,0
			c0.8-8.4,6.1-11.7,14.4-11.7c7.6,0,14.1,1.4,14.1,10.5c0,8.7-12.4,8.3-25.7,10.2c-13.5,1.8-26.9,6-26.9,23.6
			c0,16,11.9,23.3,26.9,23.3c9.6,0,19.7-2.6,26.6-9.6c0.2,2.6,0.7,5.1,1.5,7.5h22c-2-3.2-2.8-10.2-2.8-17.3L200,443.9z M178.3,471.6
			c0,4.7-0.6,17.9-17.6,17.9c-7,0-13.3-2-13.3-9.9s6.1-10.1,12.9-11.4c6.7-1.2,14.4-1.4,18-4.5L178.3,471.6z"/>
		<path class="st0" d="M337.4,421.8c-9.4,0.2-18.1,5-23.1,12.9h-0.5v-40.5h-21.7v107.4h21.7v-40.8c0-15.8,5-22.3,16.8-22.3
			c10.1,0,13.9,6.3,13.9,19.1v43.9h21.7v-47.9C366.3,434.6,360.4,421.8,337.4,421.8z"/>
		<path class="st0" d="M442.7,396.3c-2.3,16.1-16.2,21.2-31.4,20.9v16.1h26.9v68.3H460V396.3H442.7z"/>
		<path class="st0" d="M263.7,473.9c-1.9,8.3-7.6,13.7-16.9,13.7c-13.6,0-18-13.4-18-24.5c0-11.4,4.6-25.3,18.5-25.3
			c8.2,0,13.6,3.9,15.6,11.1h21.5c-2.5-18.3-19-27.2-36.9-27.2c-25.7,0-40.4,17.9-40.4,42.1c0,23.3,16.1,39.9,39.9,39.9
			c20.1,0,34.3-10.5,37.8-29.8L263.7,473.9z"/>
		<path class="st0" d="M230,24c86.2,0,156,69.8,156,156c0,41.4-16.4,81.1-45.7,110.3c-60.9,60.9-159.7,60.9-220.6,0
			s-60.9-159.7,0-220.6C148.9,40.3,188.6,23.9,230,24 M230,0C130.6,0,50,80.6,50,180s80.6,180,180,180s180-80.6,180-180
			S329.4,0,230,0z"/>
		<rect x="122" y="119.8" class="st0" width="24" height="120"/>
		<rect x="170" y="119.8" class="st0" width="24" height="120"/>
		<rect x="218" y="119.8" class="st0" width="24" height="120"/>
		<rect x="314" y="119.8" class="st0" width="24" height="120"/>
	</g>
</g>
</svg>
