<svg xmlns="http://www.w3.org/2000/svg" viewBox="0 0 460 503.76"><title>Asset 1</title><g id="Layer_2" data-name="Layer 2"><g id="Layer_1-2" data-name="Layer 1"><polygon points="59.65 468.11 59.34 468.11 33.8 394.24 0 394.24 0 501.66 22.48 501.66 22.48 426.28 22.79 426.28 49.55 501.66 68.06 501.66 94.82 425.53 95.13 425.53 95.13 501.66 117.61 501.66 117.61 394.24 83.81 394.24 59.65 468.11"/><path d="M200,443.89c0-18.65-19-22.12-34.72-22.12-17.74,0-35.94,6-37.16,26V449h21.62s.06-.93.09-1.2h0c.76-8.43,6.12-11.74,14.38-11.74,7.65,0,14.07,1.35,14.07,10.53,0,8.73-12.39,8.27-25.69,10.23-13.46,1.8-26.92,6-26.92,23.62,0,15.95,11.93,23.32,26.92,23.32,9.64,0,19.73-2.56,26.61-9.63a31.33,31.33,0,0,0,1.53,7.52h22c-2-3.16-2.75-10.23-2.75-17.3Zm-21.72,27.68c0,4.66-.61,17.9-17.59,17.9-7,0-13.31-2-13.31-9.93s6.12-10.08,12.85-11.43c6.73-1.2,14.38-1.35,18-4.51Z"/><path d="M337.35,421.77a27.89,27.89,0,0,0-23.09,12.94h-.46V394.24H292.08V501.66H313.8V460.89c0-15.8,5-22.27,16.82-22.27,10.09,0,13.92,6.32,13.92,19.11v43.93h21.72V453.81C366.26,434.56,360.44,421.77,337.35,421.77Z"/><path d="M442.72,396.34c-2.29,16.1-16.21,21.21-31.35,20.91v16.1h26.92v68.3H460V396.34Z"/><path d="M263.67,473.93c-1.88,8.32-7.56,13.74-16.9,13.74-13.61,0-18-13.39-18-24.52,0-11.43,4.59-25.27,18.51-25.27,8.21,0,13.63,3.86,15.58,11.13h21.5c-2.48-18.33-19-27.23-36.93-27.23-25.69,0-40.38,17.9-40.38,42.12,0,23.32,16.06,39.87,39.92,39.87,20.09,0,34.33-10.53,37.76-29.83Z"/><path d="M230,24A156,156,0,0,1,340.31,290.31,156,156,0,0,1,119.69,69.69,155,155,0,0,1,230,24m0-24A180,180,0,1,0,410,180,180,180,0,0,0,230,0Z"/><rect x="74" y="167.84" width="120" height="24" transform="translate(-45.84 313.84) rotate(-90)"/><rect x="122" y="167.84" width="120" height="24" transform="translate(2.16 361.84) rotate(-90)"/><rect x="170" y="167.84" width="120" height="24" transform="translate(50.16 409.84) rotate(-90)"/><rect x="266" y="167.84" width="120" height="24" transform="translate(146.16 505.84) rotate(-90)"/></g></g></svg>