<svg xmlns="http://www.w3.org/2000/svg" viewBox="0 0 938.2 360"><defs><style>.cls-1{fill:#fefefe;}</style></defs><g id="LOGOS"><path class="cls-1" d="M180,24A156,156,0,0,1,290.31,290.31,156,156,0,0,1,69.69,69.69,155,155,0,0,1,180,24m0-24A180,180,0,1,0,360,180,180,180,0,0,0,180,0Z"/><rect class="cls-1" x="24" y="167.84" width="120" height="24" transform="translate(-95.84 263.84) rotate(-90)"/><rect class="cls-1" x="72" y="167.84" width="120" height="24" transform="translate(-47.84 311.84) rotate(-90)"/><rect class="cls-1" x="120" y="167.84" width="120" height="24" transform="translate(0.16 359.84) rotate(-90)"/><rect class="cls-1" x="216" y="167.84" width="120" height="24" transform="translate(96.16 455.84) rotate(-90)"/><polygon class="cls-1" points="492.24 202.28 491.9 202.28 463.45 120 425.8 120 425.8 239.65 450.84 239.65 450.84 155.69 451.18 155.69 481 239.65 501.61 239.65 531.42 154.86 531.76 154.86 531.76 239.65 556.8 239.65 556.8 120 519.15 120 492.24 202.28"/><path class="cls-1" d="M648.59,175.3c0-20.78-21.13-24.63-38.67-24.63-19.76,0-40,6.7-41.4,29V181H592.6s.07-1,.1-1.34h0c.85-9.39,6.82-13.07,16-13.07,8.51,0,15.67,1.51,15.67,11.73,0,9.72-13.8,9.22-28.62,11.39-15,2-30,6.71-30,26.32,0,17.76,13.28,26,30,26,10.73,0,22-2.85,29.64-10.73a34.94,34.94,0,0,0,1.7,8.38h24.54c-2.22-3.52-3.07-11.39-3.07-19.27ZM624.4,206.14c0,5.19-.68,19.94-19.59,19.94C597,226.08,590,223.9,590,215c0-8.72,6.81-11.23,14.31-12.74,7.49-1.34,16-1.5,20.1-5Z"/><path class="cls-1" d="M801.58,150.67a31,31,0,0,0-25.72,14.41h-.51V120h-24.2V239.65h24.2V194.24c0-17.6,5.62-24.8,18.73-24.8,11.25,0,15.51,7,15.51,21.28v48.93h24.19V186.36C833.78,164.91,827.3,150.67,801.58,150.67Z"/><path class="cls-1" d="M919,122.35C916.39,140.28,900.89,146,884,145.64v17.93h30v76.08H938.2V122.35Z"/><path class="cls-1" d="M719.51,208.77c-2.1,9.27-8.42,15.3-18.82,15.3-15.16,0-20.1-14.92-20.1-27.32,0-12.73,5.11-28.15,20.61-28.15,9.14,0,15.19,4.3,17.36,12.4H742.5c-2.76-20.42-21.15-30.33-41.13-30.33-28.62,0-45,19.94-45,46.92,0,26,17.89,44.41,44.47,44.41,22.38,0,38.24-11.73,42.06-33.23Z"/></g></svg>